<svg width="18" height="18" viewBox="0 0 18 18" fill="none" xmlns="http://www.w3.org/2000/svg">
<path d="M8.96501 6.85352L8.59619 8.33222C9.01433 8.43644 10.3031 8.8616 10.5119 8.02478C10.7295 7.15232 9.38315 6.95774 8.96501 6.85352Z" fill="white"/>
<path d="M8.41022 9.0791L8.00342 10.7095C8.50544 10.8343 10.054 11.3314 10.2829 10.4116C10.5222 9.4526 8.91224 9.20438 8.41022 9.0791Z" fill="white"/>
<path d="M10.632 2.45201C7.01656 1.55039 3.35392 3.75143 2.45266 7.36799C1.55068 10.984 3.75154 14.6468 7.36666 15.5485C10.9832 16.4501 14.6459 14.2494 15.5475 10.6332C16.4491 7.01681 14.2484 3.35345 10.632 2.45201ZM11.9752 8.03867C11.8778 8.69621 11.5135 9.01463 11.0295 9.12605C11.6939 9.47183 12.0321 10.0025 11.7099 10.9223C11.3103 12.0644 10.3604 12.1609 9.09772 11.9218L8.79118 13.1501L8.05048 12.9656L8.35288 11.7537C8.15559 11.7048 7.95884 11.6538 7.76266 11.6007L7.45918 12.8182L6.71938 12.6335L7.02592 11.4031C6.85294 11.3588 6.67726 11.3116 6.49798 11.2668L5.53426 11.0263L5.90182 10.1787C5.90182 10.1787 6.44758 10.324 6.4402 10.3132C6.6499 10.3652 6.74278 10.2284 6.7795 10.1371L7.26388 8.19545C7.29106 8.20211 7.31752 8.20859 7.342 8.21489C7.31693 8.20504 7.29126 8.1968 7.26514 8.19023L7.61056 6.80405C7.61956 6.64673 7.56538 6.44837 7.2655 6.37349C7.2772 6.36557 6.72766 6.23975 6.72766 6.23975L6.92476 5.44865L7.94626 5.70371L7.94536 5.70749C8.0989 5.74565 8.25712 5.78183 8.4184 5.81855L8.72188 4.60229L9.46204 4.78679L9.16468 5.97929C9.3634 6.02465 9.56338 6.07037 9.75814 6.11879L10.0535 4.93421L10.794 5.11871L10.4907 6.33551C11.4257 6.65753 12.1095 7.14029 11.9752 8.03867Z" fill="white"/>
</svg>
