<svg width="843" height="580" viewBox="0 0 843 580" fill="none" xmlns="http://www.w3.org/2000/svg">
<path opacity="0.16" d="M-64.5081 464.843C-33.601 546.064 69.4855 583.626 159.25 546.375C240.131 512.81 182.436 394.636 263.515 361.526C358.523 322.729 392.826 494.916 490.793 464.06C588.761 433.203 645.842 337.269 618.288 249.785" stroke="#003BF2" stroke-width="2"/>
<path opacity="0.16" d="M-44.6011 552.301C-13.694 633.523 89.3925 671.085 179.157 633.833C260.038 600.269 202.343 482.095 283.422 448.985C378.43 410.188 412.733 582.375 510.7 551.519C608.668 520.662 665.749 424.728 638.195 337.244" stroke="#003BF2" stroke-width="2"/>
<path opacity="0.16" d="M-18.2549 646.143C12.6522 727.364 115.739 764.926 205.503 727.675C286.384 694.111 228.689 575.937 309.769 542.827C404.776 504.03 439.079 676.217 537.047 645.361C635.014 614.504 692.095 518.57 664.541 431.086" stroke="#003BF2" stroke-width="2"/>
</svg>
