<svg width="18" height="18" viewBox="0 0 18 18" fill="none" xmlns="http://www.w3.org/2000/svg">
<path d="M14.7647 2.51953H3.23534C3.04563 2.51953 2.86368 2.5949 2.72953 2.72904C2.59538 2.86319 2.52002 3.04514 2.52002 3.23485V14.7644C2.52007 14.9541 2.59545 15.136 2.7296 15.2701C2.86374 15.4042 3.04566 15.4795 3.23534 15.4795H9.44228V10.4608H7.75334V8.50489H9.44228V7.06237C9.44228 5.38837 10.4647 4.47703 11.958 4.47703C12.6733 4.47703 13.288 4.53013 13.4673 4.55407V6.30349L12.4315 6.30403C11.6194 6.30403 11.4622 6.68995 11.4622 7.25623V8.50507H13.399L13.1469 10.461H11.4622V15.4795H14.7649C14.9546 15.4795 15.1365 15.4041 15.2706 15.27C15.4047 15.1358 15.48 14.9539 15.48 14.7642V3.23485C15.48 3.04514 15.4047 2.86319 15.2705 2.72904C15.1364 2.5949 14.9544 2.51953 14.7647 2.51953Z" fill="white"/>
</svg>
