<svg width="251" height="89" viewBox="0 0 251 89" fill="none" xmlns="http://www.w3.org/2000/svg">
<rect width="250.3" height="89" transform="translate(0.600098)" fill="white"/>
<g clip-path="url(#clip0_107_467)">
<path fill-rule="evenodd" clip-rule="evenodd" d="M202.895 44.7734C202.432 44.7734 201.959 44.7734 201.631 44.7312L206.023 24.11H176.757L175.849 28.385C174.805 28.2186 174.075 28.6452 173.852 29.3276C173.635 30.0095 172.851 32.9169 172.851 34.8303C172.851 37.8327 173.606 38.933 173.606 38.933L168.238 64.2054H197.5L201.035 47.5795C205.04 47.4419 206.163 46.1925 206.163 45.4624C206.163 44.4471 204.159 44.7734 202.895 44.7734Z" fill="#F0BD2D"/>
<path fill-rule="evenodd" clip-rule="evenodd" d="M189.762 42.5036C189.762 42.5036 194.981 47.7293 202.273 46.8377C204.914 46.5081 205.5 45.8116 205.417 45.4923C205.338 45.1855 204.433 45.3156 203.553 45.3519C203.042 45.3807 198.654 45.952 192.808 41.5105C190.534 40.9186 189.762 42.5036 189.762 42.5036ZM172.819 53.6467L178.559 51.6553L186.507 57.2843L183.431 59.2107L187.976 62.9903L188.041 61.6558L189.414 58.28L189.307 55.3698L186.418 50.6758L186.977 48.6372L186.786 46.3509C179.315 46.3677 176.111 43.0992 174.344 40.4227L171.601 53.4657L172.819 53.6467ZM189.338 36.1579L187.696 34.5866L185.251 36.7249L189.338 36.1579ZM196.431 39.4237C196.924 40.3322 197.095 41.5864 197.239 43.5074C195.529 42.7258 192.664 40.42 192.664 40.42C189.402 39.7684 188.28 42.3794 188.28 42.3794L189.017 43.0342C188.739 44.3107 187.834 44.9546 187.834 44.9546C173.274 44.9546 173.593 35.8755 173.593 34.83C173.593 32.9171 174.344 30.1229 174.583 29.511C174.823 28.9044 175.919 29.1044 175.919 29.1044L183.04 30.1424L184.539 29.3218C184.539 29.3218 186.732 29.1586 189.123 29.8324C189.123 29.8324 192.798 32.9095 194.218 35.153L194.11 36.3157C194.11 36.3157 195.98 38.5803 196.431 39.4237ZM194.986 57.3039C195.55 57.3039 195.938 56.9623 195.938 56.9623C195.996 56.1249 195.802 55.6913 195.802 55.6913C195.128 55.868 194.578 55.6295 194.504 54.9406C194.412 54.0153 196.503 49.9658 197.038 48.615C197.248 48.0876 197.266 47.3347 197.266 47.3347C195.034 47.0247 193.105 45.8311 193.105 45.8311L193.322 47.2469C193.411 48.1158 192.284 52.7188 192.515 54.9888C192.515 54.9888 192.71 57.313 194.986 57.3039ZM178.471 56.6843L178.454 52.645L182.814 55.7048L181.548 61.9323L182.134 63.141H176.875L176.279 61.9431L178.471 56.6843Z" fill="#003B65"/>
<path fill-rule="evenodd" clip-rule="evenodd" d="M156.556 53.9247C157.271 53.9247 157.763 54.2104 158.054 54.7969C158.344 55.3817 158.369 56.2598 158.135 57.4263C158.007 58.0339 157.838 58.5656 157.62 59.0177C157.409 59.4681 157.162 59.8454 156.881 60.1327C156.603 60.4351 156.302 60.6557 155.974 60.7945C155.642 60.9441 155.305 61.0091 154.962 61.0091C154.766 61.0091 154.573 60.9847 154.375 60.9473C154.176 60.9018 153.995 60.8579 153.838 60.7945C153.672 60.736 153.548 60.6752 153.449 60.6118C153.354 60.5457 153.309 60.4893 153.318 60.4443C153.33 60.4243 153.332 60.4004 153.347 60.376C153.347 60.3506 153.363 60.3218 153.39 60.2974L153.625 59.8985C153.65 59.8579 153.689 59.8454 153.736 59.8454C153.724 59.8454 153.761 59.8579 153.844 59.8817C153.941 59.9072 154.046 59.9392 154.187 59.9711C154.324 60.015 154.477 60.0449 154.634 60.0633C154.798 60.0904 154.948 60.1039 155.092 60.1039C155.294 60.1039 155.496 60.06 155.693 59.9771C155.891 59.8985 156.074 59.7505 156.242 59.5451C156.411 59.3483 156.565 59.0838 156.713 58.7483C156.851 58.4128 156.978 57.9976 157.081 57.5016C156.978 57.7358 156.857 57.9174 156.732 58.067C156.603 58.2101 156.47 58.3266 156.335 58.4128C156.199 58.4963 156.05 58.5537 155.899 58.5884C155.745 58.6274 155.586 58.6339 155.426 58.6339C155.036 58.6339 154.728 58.5705 154.484 58.4524C154.241 58.3266 154.066 58.164 153.945 57.9472C153.817 57.7423 153.755 57.4957 153.736 57.2209C153.724 56.9352 153.744 56.6387 153.814 56.3173C153.882 55.9845 153.986 55.6793 154.123 55.3844C154.272 55.0944 154.448 54.8375 154.669 54.6278C154.894 54.4071 155.16 54.2391 155.479 54.115C155.787 53.9795 156.154 53.9247 156.556 53.9247ZM151.031 53.9172C151.396 53.9172 151.706 53.9568 151.948 54.0473C152.195 54.1318 152.389 54.25 152.526 54.4072C152.669 54.5611 152.756 54.7487 152.79 54.9617C152.831 55.1807 152.818 55.4257 152.766 55.6794C152.701 56.0105 152.55 56.2957 152.31 56.5287C152.076 56.7705 151.748 56.9656 151.359 57.1239C151.777 57.2903 152.076 57.5179 152.254 57.8264C152.431 58.1229 152.479 58.4963 152.385 58.9299C152.254 59.6069 151.941 60.1143 151.451 60.4742C150.95 60.8309 150.327 61.0016 149.574 61.0016C148.793 61.0016 148.237 60.8233 147.902 60.4666C147.568 60.1067 147.482 59.5912 147.612 58.9191C147.701 58.4963 147.894 58.1304 148.201 57.8264C148.496 57.5179 148.89 57.2811 149.387 57.1103C149.053 56.971 148.818 56.7797 148.674 56.5531C148.533 56.3173 148.491 56.0268 148.567 55.6826C148.624 55.4257 148.716 55.1894 148.84 54.9644C148.969 54.7487 149.136 54.5611 149.334 54.4072C149.543 54.25 149.779 54.1318 150.063 54.0473C150.34 53.9535 150.664 53.9172 151.031 53.9172ZM135.172 55.8003C135.34 55.8003 135.496 55.8166 135.637 55.8486C135.787 55.8784 135.92 55.9169 136.038 55.9695C136.154 56.0107 136.26 56.0665 136.346 56.1207C136.434 56.1765 136.499 56.228 136.54 56.267C136.57 56.3017 136.586 56.3321 136.583 56.3641C136.577 56.4031 136.551 56.4573 136.497 56.5169L136.224 56.8172C136.188 56.8492 136.15 56.8698 136.104 56.8595C136.06 56.8595 136.018 56.8492 135.97 56.8427C135.889 56.8112 135.76 56.757 135.613 56.6952C135.464 56.6302 135.28 56.6042 135.066 56.6042C134.828 56.6042 134.619 56.6497 134.439 56.7538C134.261 56.8568 134.105 56.9923 133.975 57.1495C133.848 57.3148 133.745 57.5078 133.661 57.7224C133.577 57.9414 133.508 58.1663 133.467 58.4021C133.416 58.6395 133.392 58.8661 133.383 59.0916C133.369 59.303 133.402 59.4932 133.461 59.6564C133.526 59.8244 133.62 59.9529 133.762 60.051C133.895 60.1431 134.088 60.1979 134.313 60.1979C134.504 60.1979 134.678 60.1643 134.846 60.1144C135.007 60.0602 135.169 60.0071 135.332 59.9605C135.387 59.9317 135.444 59.9285 135.482 59.9285C135.535 59.9285 135.561 59.9437 135.581 59.9767L135.713 60.2792C135.76 60.373 135.738 60.4543 135.663 60.5253C135.548 60.625 135.356 60.7356 135.065 60.8369C134.781 60.9443 134.432 60.9985 134.018 60.9985C133.577 60.9985 133.224 60.9215 132.963 60.7811C132.706 60.6358 132.515 60.444 132.39 60.2082C132.27 59.9713 132.21 59.6916 132.196 59.374C132.196 59.0656 132.23 58.73 132.304 58.3924C132.377 58.0411 132.484 57.7132 132.618 57.3993C132.751 57.0833 132.934 56.8053 133.165 56.5738C133.383 56.3321 133.661 56.1505 133.991 56.0106C134.313 55.873 134.71 55.8003 135.172 55.8003ZM139.604 55.8034C139.892 55.8061 140.156 55.8457 140.393 55.9286C140.633 56.0105 140.828 56.1373 140.977 56.3097C141.129 56.4772 141.232 56.6951 141.281 56.9515C141.339 57.2133 141.325 57.5076 141.257 57.8523C141.22 58.0334 141.171 58.1922 141.111 58.3087C141.053 58.4296 140.971 58.5266 140.875 58.5971C140.775 58.6713 140.653 58.7299 140.518 58.7608C140.375 58.7911 140.204 58.8058 140.013 58.8058H138.025C137.996 59.0096 137.992 59.1901 138.006 59.3635C138.019 59.5326 138.06 59.6746 138.135 59.7988C138.203 59.9229 138.306 60.027 138.437 60.0904C138.572 60.1641 138.75 60.1977 138.96 60.1977C139.147 60.1977 139.341 60.1749 139.531 60.1278C139.728 60.0768 139.94 60.027 140.146 59.9603C140.255 59.9289 140.319 59.9164 140.343 59.9289C140.367 59.944 140.393 59.9603 140.393 59.9771L140.53 60.2796C140.583 60.3728 140.559 60.4579 140.479 60.5256C140.423 60.5858 140.337 60.6362 140.216 60.6899C140.097 60.7506 139.959 60.8005 139.797 60.846C139.633 60.8883 139.46 60.9213 139.262 60.9528C139.076 60.9847 138.879 60.9983 138.667 60.9983C138.226 60.9983 137.867 60.9213 137.604 60.7869C137.341 60.6481 137.144 60.4579 137.023 60.2232C136.899 59.989 136.834 59.7202 136.826 59.4134C136.818 59.1055 136.852 58.7879 136.914 58.4524C136.982 58.0789 137.095 57.7423 137.242 57.416C137.383 57.0967 137.572 56.817 137.791 56.5845C138.006 56.3352 138.268 56.1509 138.563 56.0105C138.868 55.8728 139.213 55.8034 139.604 55.8034ZM121.304 53.8914C121.516 53.8914 121.729 53.9142 121.933 53.9472C122.146 53.9792 122.344 54.0199 122.515 54.0773C122.691 54.1288 122.839 54.1738 122.957 54.2285C123.085 54.2795 123.161 54.3267 123.196 54.3646C123.224 54.3857 123.24 54.4145 123.234 54.4492C123.23 54.4795 123.211 54.537 123.161 54.6139L122.92 55.0112C122.902 55.0476 122.864 55.0687 122.812 55.0584C122.767 55.0508 122.714 55.0416 122.67 55.0264C122.614 55.0112 122.533 54.9901 122.418 54.9587C122.309 54.9343 122.182 54.9115 122.04 54.8904C121.901 54.8676 121.754 54.8438 121.607 54.8242C121.454 54.8058 121.31 54.7971 121.177 54.7971C120.922 54.7971 120.698 54.8302 120.528 54.8936C120.348 54.9587 120.2 55.0416 120.083 55.1397C119.968 55.2411 119.874 55.3403 119.816 55.4557C119.758 55.5663 119.716 55.6796 119.696 55.7836C119.652 55.956 119.672 56.1132 119.758 56.259C119.835 56.4092 120.035 56.5528 120.332 56.6737L121.194 57.0227C121.446 57.1241 121.673 57.2477 121.842 57.3989C122.022 57.5469 122.159 57.7133 122.267 57.8949C122.365 58.0759 122.424 58.2629 122.451 58.4689C122.482 58.6716 122.48 58.8765 122.431 59.0911C122.377 59.3849 122.264 59.6429 122.095 59.8711C121.916 60.1037 121.708 60.3037 121.452 60.4739C121.2 60.6359 120.908 60.7612 120.58 60.8457C120.254 60.9444 119.906 60.985 119.536 60.985C119.329 60.985 119.128 60.9655 118.919 60.9335C118.71 60.9015 118.522 60.8609 118.342 60.8202C118.161 60.7715 118.004 60.7129 117.877 60.6647C117.745 60.6121 117.656 60.5541 117.603 60.5178C117.573 60.4804 117.561 60.4468 117.563 60.4148C117.573 60.3866 117.601 60.3335 117.64 60.2657L117.878 59.8668C117.899 59.8289 117.942 59.8121 117.99 59.8213C118.045 59.824 118.09 59.8289 118.137 59.85C118.198 59.8668 118.285 59.8955 118.407 59.9167C118.525 59.9438 118.662 59.9709 118.813 59.986C118.955 60.0148 119.109 60.0327 119.262 60.0451C119.425 60.063 119.569 60.0739 119.716 60.0739C120.138 60.0739 120.495 59.9936 120.779 59.8392C121.073 59.6749 121.239 59.4554 121.291 59.1898C121.332 58.9632 121.288 58.7605 121.145 58.5914C120.999 58.419 120.813 58.283 120.594 58.1952L119.726 57.8298C119.515 57.742 119.326 57.6347 119.157 57.5122C118.988 57.394 118.847 57.2509 118.743 57.097C118.634 56.9355 118.566 56.7571 118.525 56.5631C118.483 56.3642 118.497 56.1419 118.546 55.8937C118.613 55.5809 118.729 55.3061 118.898 55.0584C119.072 54.8058 119.287 54.5977 119.536 54.4248C119.789 54.2546 120.062 54.1212 120.363 54.0323C120.668 53.9396 120.978 53.8914 121.304 53.8914ZM163.645 54.047C163.766 54.047 163.822 54.1028 163.794 54.2286L162.929 58.4023H163.537C163.666 58.4023 163.721 58.4689 163.686 58.5974L163.591 59.0657C163.579 59.1958 163.5 59.2565 163.366 59.2565H162.758L162.456 60.7054C162.418 60.8371 162.351 60.8983 162.226 60.8983H161.394C161.257 60.8983 161.205 60.8338 161.23 60.7054L161.536 59.2565H158.744C158.619 59.2565 158.566 59.1893 158.581 59.0657L158.603 58.9736C158.627 58.9026 158.644 58.8467 158.664 58.7877C158.687 58.7302 158.725 58.6803 158.784 58.6278L162.662 54.195C162.765 54.0925 162.879 54.047 163.001 54.047H163.645ZM147.092 54.0866L145.72 60.6902C145.694 60.8203 145.618 60.8886 145.498 60.8886H144.674C144.538 60.8886 144.484 60.8203 144.512 60.6902L145.601 55.4363L144.281 55.9783C144.15 56.0271 144.101 55.9843 144.13 55.8634L144.245 55.33C144.266 55.1956 144.347 55.1018 144.475 55.0503L146.936 53.9793C147.066 53.9251 147.114 53.9565 147.092 54.0866ZM125.228 55.9166C125.356 55.9166 125.41 55.9817 125.383 56.1096L124.7 59.4133C124.65 59.6507 124.643 59.8187 124.678 59.9163C124.715 60.0269 124.76 60.0702 124.83 60.0702H124.851C124.975 60.0702 125.026 60.1326 125.004 60.2599L124.919 60.6751C124.892 60.8106 124.816 60.8746 124.691 60.8746H124.63C123.7 60.8746 123.328 60.403 123.526 59.4783L124.221 56.1096C124.246 55.9784 124.328 55.9166 124.453 55.9166H125.228ZM129.728 55.806C129.98 55.806 130.22 55.8455 130.428 55.9285C130.649 56.0103 130.829 56.1312 130.965 56.2927C131.104 56.4483 131.201 56.6467 131.258 56.8792C131.311 57.1101 131.313 57.3746 131.255 57.6771L130.889 59.4208C130.839 59.6533 130.838 59.8246 130.872 59.9227C130.91 60.0295 130.965 60.074 131.025 60.074H131.037C131.177 60.074 131.219 60.1401 131.193 60.2658L131.104 60.6854C131.083 60.8171 131.004 60.8746 130.889 60.8746H130.829C129.894 60.8746 129.525 60.4149 129.715 59.4815L130.024 57.9974C130.058 57.8164 130.076 57.6348 130.084 57.4733C130.088 57.2993 130.076 57.1497 130.034 57.0288C129.993 56.8987 129.922 56.7974 129.818 56.7204C129.721 56.6467 129.593 56.6071 129.43 56.6071C128.756 56.6071 128.313 57.0998 128.104 58.0988L127.566 60.6854C127.542 60.8111 127.468 60.8746 127.344 60.8746H126.569C126.435 60.8746 126.38 60.8111 126.408 60.6751L127.114 57.2749C127.155 57.083 127.155 56.935 127.119 56.8461C127.075 56.7627 127.026 56.7204 126.956 56.7204H126.942C126.816 56.7204 126.758 56.6553 126.787 56.5285L126.876 56.1101C126.9 55.9816 126.975 55.9166 127.114 55.9166H127.169C127.364 55.9166 127.533 55.9377 127.663 55.9756C127.799 56.0103 127.908 56.0569 127.98 56.1204C128.062 56.1962 128.113 56.27 128.145 56.367C128.177 56.4711 128.189 56.5843 128.189 56.7041H128.208C128.434 56.3941 128.66 56.1767 128.883 56.0271C129.115 55.8786 129.391 55.806 129.728 55.806ZM150.274 57.615C150.11 57.615 149.948 57.648 149.798 57.7012C149.642 57.7613 149.496 57.8491 149.369 57.963C149.238 58.0697 149.129 58.1998 149.032 58.3613C148.935 58.5142 148.868 58.6866 148.828 58.8871C148.752 59.2698 148.808 59.569 148.99 59.7853C149.181 60.0043 149.432 60.11 149.761 60.11C149.924 60.11 150.073 60.0829 150.229 60.033C150.383 59.9772 150.527 59.8986 150.66 59.7956C150.781 59.6823 150.902 59.5495 150.991 59.4129C151.084 59.2563 151.151 59.0915 151.189 58.9023C151.228 58.7017 151.231 58.5234 151.196 58.3613C151.169 58.1998 151.118 58.067 151.031 57.9592C150.942 57.8491 150.837 57.7635 150.708 57.7012C150.573 57.648 150.433 57.615 150.274 57.615ZM162.226 55.9165H162.203L160.119 58.4023H161.711L162.226 55.9165ZM139.501 56.604C139.325 56.604 139.172 56.6387 139.029 56.7206C138.883 56.7916 138.767 56.8929 138.655 57.0257C138.552 57.1498 138.46 57.2929 138.385 57.4686C138.306 57.635 138.241 57.816 138.192 58.0019L139.681 58.0079C139.834 58.0079 139.932 57.9943 139.991 57.9504C140.054 57.9174 140.099 57.8296 140.122 57.6832C140.151 57.5412 140.162 57.4051 140.151 57.2751C140.141 57.1498 140.099 57.0317 140.045 56.9352C139.991 56.8338 139.92 56.7569 139.834 56.6951C139.733 56.636 139.627 56.604 139.501 56.604ZM156.463 54.824C156.222 54.824 156.017 54.8679 155.846 54.9557C155.68 55.0419 155.536 55.1459 155.421 55.2972C155.301 55.4408 155.21 55.6007 155.14 55.7866C155.063 55.9753 155.004 56.1568 154.976 56.3503C154.93 56.533 154.901 56.7206 154.901 56.8897C154.894 57.0544 154.924 57.2041 154.976 57.319C155.031 57.4507 155.127 57.5499 155.247 57.6182C155.373 57.6984 155.547 57.7315 155.773 57.7315C155.986 57.7315 156.174 57.6859 156.319 57.5943C156.47 57.5016 156.603 57.3748 156.713 57.2209C156.819 57.068 156.907 56.8897 156.978 56.6815C157.049 56.4896 157.1 56.2669 157.152 56.0343C157.183 55.8273 157.189 55.649 157.165 55.501C157.14 55.3438 157.088 55.2229 157.018 55.1215C156.946 55.0186 156.869 54.9432 156.765 54.8999C156.665 54.8484 156.565 54.824 156.463 54.824ZM150.152 55.0631C149.943 55.2338 149.824 55.436 149.779 55.6761C149.75 55.8089 149.748 55.9347 149.767 56.0572C149.791 56.1764 149.83 56.2702 149.894 56.364C149.954 56.4572 150.039 56.5287 150.132 56.5786C150.228 56.6301 150.34 56.6583 150.471 56.6583C150.582 56.6583 150.702 56.6355 150.821 56.5873C150.939 56.5287 151.047 56.4648 151.148 56.3775C151.251 56.2957 151.332 56.1965 151.403 56.0756C151.479 55.9531 151.522 55.8165 151.556 55.6794C151.611 55.4148 151.562 55.2051 151.421 55.0479C151.282 54.8907 151.084 54.8148 150.837 54.8148C150.582 54.8061 150.352 54.8967 150.152 55.0631ZM125.664 53.8206C125.792 53.8206 125.844 53.8889 125.812 54.0168L125.652 54.7772C125.619 54.8992 125.546 54.9583 125.422 54.9583H124.653C124.514 54.9583 124.464 54.8992 124.485 54.7772L124.653 54.0092C124.678 53.8823 124.757 53.8206 124.892 53.8206H125.664Z" fill="#003B65"/>
<path fill-rule="evenodd" clip-rule="evenodd" d="M74.7216 38.0218C75.0858 38.0218 75.2246 38.2002 75.1476 38.5579L73.0548 48.1644C72.9188 48.8235 72.9009 49.2918 73.0093 49.5742C73.102 49.8642 73.2451 50.0019 73.4261 50.0019H73.4793C73.8375 50.0019 73.9812 50.1835 73.9026 50.5353L73.6684 51.7006C73.5915 52.0589 73.3828 52.2383 73.0397 52.2383H72.8798C70.2715 52.2308 69.2405 50.9358 69.7815 48.3498L71.9128 38.5547C71.9805 38.2002 72.2006 38.0218 72.5654 38.0218H74.7216ZM129.865 37.6016C130.791 37.6016 131.578 37.7599 132.218 38.0894C132.863 38.4054 133.366 38.9193 133.741 39.6131H133.797L134.24 38.49C134.31 38.2938 134.386 38.1577 134.474 38.0791C134.565 37.994 134.707 37.955 134.906 37.955H136.812C137.172 37.955 137.319 38.1409 137.239 38.496L135.305 48.0569C135.174 48.6315 135.166 49.0348 135.282 49.2814C135.393 49.5166 135.536 49.6391 135.721 49.6391H135.774C136.138 49.6391 136.281 49.825 136.199 50.1741L135.959 51.353C135.891 51.7108 135.672 51.8924 135.334 51.8924H135.166C134.038 51.8891 133.273 51.694 132.852 51.2999C132.437 50.9129 132.238 50.3779 132.259 49.6922H132.203C131.458 50.5839 130.645 51.2316 129.759 51.6327C128.873 52.0295 127.908 52.2382 126.873 52.2382C126.096 52.2306 125.383 52.1113 124.739 51.8696C124.085 51.6295 123.559 51.2154 123.155 50.6451C122.743 50.076 122.48 49.3204 122.356 48.3832C122.238 47.4423 122.318 46.2742 122.609 44.8638C122.896 43.4843 123.294 42.3314 123.793 41.4002C124.294 40.4728 124.869 39.7199 125.511 39.167C126.157 38.6033 126.849 38.2 127.586 37.955C128.33 37.7208 129.089 37.6016 129.865 37.6016ZM93.0128 37.5745C94.1717 37.5745 95.1555 37.7176 95.9501 38.0016C96.7447 38.2905 97.2667 38.5805 97.4976 38.8873C97.5296 38.9421 97.5518 39.0207 97.5811 39.1339C97.6 39.238 97.5215 39.3876 97.3447 39.5838L96.5864 40.4424C96.5046 40.5665 96.3956 40.6191 96.2645 40.592C96.1328 40.5633 95.9983 40.5351 95.8742 40.495C95.4135 40.3123 94.9392 40.1595 94.4617 40.0267C93.9841 39.8922 93.4519 39.8245 92.8686 39.8245C92.0577 39.8245 91.4333 39.9844 91.0208 40.3036C90.5932 40.6283 90.3211 41.0484 90.2045 41.5698C90.1471 41.8685 90.1807 42.1395 90.2956 42.3677C90.4251 42.6019 90.6598 42.771 91.0149 42.881L94.0026 43.7927C95.1083 44.1342 95.814 44.6329 96.1328 45.2963C96.4412 45.9549 96.491 46.8075 96.278 47.8423C96.1241 48.5751 95.8336 49.2098 95.4135 49.7405C94.9864 50.2787 94.4796 50.733 93.8828 51.0988C93.2827 51.4631 92.6301 51.7395 91.9136 51.9151C91.1948 52.0918 90.4631 52.1791 89.7226 52.1791C89.1454 52.1791 88.5925 52.1433 88.0814 52.0691C87.5675 51.9997 87.1052 51.9027 86.6835 51.785C86.2607 51.6685 85.9208 51.5346 85.6503 51.3726C85.3799 51.2121 85.1939 51.043 85.0969 50.863C84.9701 50.6289 84.9988 50.3974 85.1956 50.1633L85.9598 49.3112C86.052 49.2234 86.1685 49.1735 86.3105 49.1871C86.445 49.1963 86.5588 49.2234 86.6688 49.2521C87.1642 49.4353 87.6797 49.5876 88.219 49.7237C88.754 49.8646 89.3557 49.9264 90.0311 49.9297C90.5899 49.9297 91.0615 49.8749 91.4333 49.7708C91.8111 49.6635 92.1212 49.5258 92.3504 49.3535C92.5786 49.1811 92.745 48.9957 92.861 48.7702C92.9716 48.5659 93.0562 48.3475 93.1033 48.1323C93.1863 47.7263 93.0925 47.4076 92.828 47.1853C92.5575 46.9571 92.0621 46.723 91.332 46.4688L89.1183 45.7722C88.1784 45.4627 87.5529 44.9684 87.2445 44.2686C86.9312 43.5689 86.8753 42.777 87.051 41.8826C87.187 41.2733 87.4076 40.7129 87.7339 40.1828C88.0559 39.6554 88.4716 39.1952 88.9746 38.8055C89.4809 38.4087 90.0717 38.1062 90.7471 37.8948C91.4268 37.6813 92.1764 37.5745 93.0128 37.5745ZM85.9282 37.7008C86.1065 37.7008 86.2279 37.7177 86.2892 37.7513C86.3499 37.7935 86.3618 37.9068 86.3103 38.1063L85.8799 40.1145C85.8344 40.2929 85.7742 40.4137 85.6957 40.4755C85.6154 40.5379 85.5249 40.5769 85.416 40.5834C85.3076 40.5921 85.1905 40.5834 85.0653 40.5574C84.9411 40.5303 84.8176 40.5151 84.6934 40.5151C82.9708 40.5151 81.9204 41.3775 81.5594 43.1125L79.7446 51.4013C79.666 51.7688 79.4563 51.9423 79.1115 51.9423L76.9385 51.9379C76.5564 51.9379 76.4062 51.7623 76.4805 51.4013L78.569 41.745C78.6974 41.172 78.7001 40.7628 78.5977 40.5238C78.4844 40.2842 78.3348 40.1628 78.1532 40.1628H78.0974C77.738 40.1595 77.5911 39.9844 77.6714 39.6262L77.9071 38.4402C77.9874 38.0895 78.2031 37.9068 78.569 37.9068H78.7289C79.8536 37.9101 80.6379 38.0445 81.0759 38.3177C81.5052 38.5806 81.7274 38.9676 81.7334 39.4695H81.7892C82.3724 38.8407 82.9708 38.3919 83.5904 38.1123C84.204 37.8418 84.9823 37.7008 85.9282 37.7008ZM160.695 32.619L158.335 44.0798L164.052 38.4053C164.345 38.1126 164.673 37.9716 165.035 37.9716L167.291 37.9792C167.709 37.9792 167.743 38.1213 167.398 38.4053L160.691 44.701L165.019 51.4824C165.204 51.7686 165.105 51.9117 164.723 51.9117H162.057C161.677 51.9117 161.41 51.7686 161.262 51.4824L157.953 45.8209L156.812 51.3724C156.734 51.7307 156.522 51.903 156.177 51.903H154.033C153.647 51.903 153.496 51.7263 153.578 51.3724L157.074 34.4522L160.695 32.619ZM147.799 37.6392C148.524 37.6392 149.186 37.7541 149.789 37.9915C150.389 38.2192 150.897 38.5612 151.287 39.01C151.683 39.4529 151.955 40.0068 152.11 40.6584C152.259 41.3126 152.251 42.0606 152.092 42.8948L151.07 47.8002C150.941 48.4647 150.926 48.9396 151.021 49.2236C151.122 49.5093 151.26 49.6502 151.447 49.6502H151.5C151.855 49.6502 152.006 49.8328 151.926 50.1938L151.692 51.3722C151.613 51.7262 151.403 51.9002 151.054 51.9002H150.897C148.263 51.9002 147.225 50.5944 147.767 47.9861L148.635 43.8027C148.74 43.2845 148.796 42.794 148.809 42.3175C148.825 41.8465 148.771 41.4259 148.656 41.0741C148.544 40.7126 148.352 40.4302 148.068 40.2155C147.799 39.9998 147.426 39.8925 146.95 39.8925C145.043 39.8898 143.811 41.2855 143.252 44.0694L141.732 51.3587C141.655 51.7143 141.443 51.8953 141.096 51.8953L138.924 51.8926C138.541 51.8926 138.391 51.711 138.464 51.356L140.43 41.7874C140.562 41.2204 140.568 40.8112 140.452 40.5662C140.34 40.3261 140.198 40.2052 140.014 40.2052H139.959C139.6 40.2052 139.457 40.0296 139.527 39.6686L139.77 38.4897C139.849 38.1346 140.06 37.9552 140.43 37.9552H140.591C141.157 37.9552 141.623 38.0111 142 38.1016C142.371 38.2056 142.67 38.3466 142.898 38.5352C143.119 38.7211 143.273 38.9585 143.355 39.235C143.435 39.5027 143.476 39.8149 143.468 40.157H143.53C144.159 39.2968 144.798 38.668 145.428 38.2588C146.064 37.8414 146.856 37.6392 147.799 37.6392ZM111.131 32.5706L115.157 32.5814C117.28 32.5814 118.873 33.0167 119.921 33.8932C120.973 34.768 121.327 36.0282 120.989 37.6755C120.784 38.6398 120.391 39.4528 119.814 40.1146C119.24 40.7716 118.494 41.2995 117.578 41.6903L117.568 41.7451C118.85 41.9446 119.743 42.4671 120.247 43.3137C120.759 44.1674 120.883 45.1859 120.627 46.3903C120.469 47.1687 120.166 47.895 119.71 48.5558C119.265 49.216 118.713 49.7965 118.051 50.2935C117.396 50.7949 116.659 51.1895 115.841 51.46C115.028 51.7424 114.171 51.8725 113.292 51.8725L107.166 51.8698C106.779 51.8698 106.631 51.6887 106.714 51.3331L110.474 33.1088C110.551 32.7538 110.77 32.5706 111.131 32.5706ZM105.721 33.6679L104.864 37.9294H106.631C106.994 37.9326 107.143 38.1093 107.059 38.4676L106.83 39.5116C106.758 39.8726 106.531 40.0525 106.17 40.0525H104.405L102.826 47.7684C102.691 48.4318 102.735 48.9002 102.953 49.1874C103.172 49.4747 103.432 49.6167 103.745 49.6167L104.197 49.6211C104.562 49.6211 104.709 49.7962 104.629 50.1517L104.387 51.3301C104.314 51.6884 104.101 51.8694 103.758 51.8694H102.481C101.25 51.8694 100.382 51.5252 99.8821 50.8314C99.3807 50.1441 99.2793 49.0996 99.5666 47.6838L101.136 40.0466H99.7216C99.3596 40.0466 99.2159 39.8693 99.2961 39.5024L99.5227 38.4595C99.5932 38.1061 99.8203 37.9294 100.185 37.9294H101.597L102.064 35.5206L105.721 33.6679ZM60.8451 32.5345L70.4467 32.5454C70.812 32.5454 70.9513 32.7172 70.8814 33.0815L70.6006 34.4176C70.5247 34.7759 70.303 34.9542 69.9437 34.9542H63.2203L62.0007 40.8765H67.3652C67.7251 40.8765 67.8655 41.0624 67.7929 41.4153L67.5164 42.7546C67.4411 43.1124 67.2156 43.2907 66.8589 43.2907L61.496 43.2847L59.8445 51.2998C59.7702 51.6422 59.5735 51.8273 59.2519 51.8332L56.8752 51.8332C56.4958 51.8332 56.3386 51.6548 56.4172 51.2938L60.1859 33.076C60.2602 32.7145 60.4835 32.5345 60.8451 32.5345ZM130.001 39.8473C129.513 39.8473 129.058 39.9226 128.636 40.0646C128.217 40.205 127.845 40.4646 127.517 40.843C127.183 41.2208 126.877 41.7254 126.602 42.3672C126.322 43.0111 126.086 43.8421 125.876 44.8638C125.664 45.8991 125.551 46.7452 125.547 47.407C125.543 48.0678 125.637 48.5919 125.818 48.9762C125.998 49.3594 126.27 49.6212 126.623 49.7708C126.98 49.9096 127.396 49.9779 127.89 49.9779C129.104 49.9855 130.114 49.5882 130.933 48.793C131.737 48.0027 132.332 46.691 132.703 44.8638C133.069 43.0794 133.008 41.7975 132.538 41.0197C132.059 40.2413 131.208 39.8473 130.001 39.8473ZM114.161 43.1641H111.823L110.492 49.6209H112.829C113.574 49.6209 114.203 49.5293 114.726 49.3401C115.246 49.1585 115.675 48.9168 116.014 48.6208C116.346 48.3249 116.605 47.9861 116.798 47.5991C116.981 47.2142 117.117 46.8212 117.197 46.4125C117.278 46.0201 117.295 45.6255 117.256 45.2418C117.219 44.864 117.086 44.5089 116.86 44.1962C116.638 43.8877 116.308 43.64 115.875 43.4482C115.443 43.259 114.871 43.1641 114.161 43.1641ZM114.664 34.8211H113.549L112.294 40.9082L113.926 40.9125C114.327 40.9125 114.717 40.8431 115.109 40.7011C115.5 40.5569 115.855 40.3455 116.185 40.0648C116.508 39.7954 116.787 39.4572 117.033 39.0625C117.278 38.6685 117.455 38.2289 117.556 37.7286C117.737 36.8489 117.606 36.1491 117.158 35.6217C116.712 35.0943 115.875 34.8298 114.664 34.8211ZM75.8322 32.7115C76.1889 32.7115 76.3352 32.8866 76.2556 33.2416L75.7992 35.3707C75.7189 35.7231 75.5135 35.9014 75.172 35.9014L73.0136 35.8981C72.6407 35.8981 72.4852 35.7231 72.5594 35.368L73.0218 33.2357C73.0987 32.8866 73.3145 32.7115 73.676 32.7115H75.8322Z" fill="#003B65"/>
</g>
<defs>
<clipPath id="clip0_107_467">
<rect width="150" height="40.3208" fill="white" transform="translate(56.2502 24)"/>
</clipPath>
</defs>
</svg>
