<svg width="251" height="89" viewBox="0 0 251 89" fill="none" xmlns="http://www.w3.org/2000/svg">
<rect width="250.3" height="89" fill="white"/>
<g clip-path="url(#clip0_107_456)">
<path d="M119.872 38.3733V61.1258H113.273V57.8027C112.599 58.9553 111.627 59.8983 110.444 60.542C109.232 61.1857 107.871 61.5 106.494 61.485C103.651 61.485 101.526 60.6917 100.119 59.105C98.7126 57.5183 98.0093 55.1233 98.0093 51.92V38.3733H104.788V52.0547C104.788 54.809 105.97 56.1861 108.334 56.1861C109.741 56.1861 110.878 55.7071 111.746 54.7491C112.614 53.7911 113.048 52.5337 113.048 50.977V38.3733H119.872Z" fill="#422466"/>
<path d="M145.745 28V61.1258H139.056V57.7578C138.367 58.9254 137.35 59.8834 136.138 60.4971C134.821 61.1707 133.354 61.515 131.873 61.485C130.032 61.515 128.222 60.9911 126.665 59.9882C125.139 58.9853 123.957 57.5782 123.104 55.767C122.251 53.9558 121.832 51.8751 121.832 49.555C121.832 47.2198 122.251 45.1691 123.104 43.3878C123.957 41.6066 125.139 40.2294 126.65 39.2565C128.162 38.2835 129.898 37.8045 131.873 37.8045C133.324 37.7895 134.746 38.1189 136.048 38.7625C137.245 39.3613 138.263 40.2893 138.966 41.4269V28H145.745ZM137.709 54.5994C138.607 53.4468 139.056 51.8003 139.056 49.6448C139.056 47.5192 138.607 45.8876 137.679 44.735C136.766 43.5824 135.494 43.0136 133.848 43.0136C132.172 43.0136 130.87 43.5824 129.943 44.7201C129.015 45.8577 128.551 47.4743 128.551 49.5699C128.551 51.7254 129.015 53.387 129.943 54.5695C130.87 55.752 132.172 56.3358 133.848 56.3358C135.539 56.3208 136.811 55.752 137.709 54.5994Z" fill="#422466"/>
<path d="M171.617 38.3733V61.1258H164.928V57.7578C164.24 58.9254 163.223 59.8834 162.01 60.4971C160.694 61.1707 159.227 61.515 157.746 61.485C155.77 61.485 154.035 61.006 152.523 60.048C151.012 59.09 149.83 57.7279 148.977 55.9466C148.124 54.1653 147.705 52.1146 147.705 49.7795C147.705 47.4444 148.139 45.3637 148.977 43.5375C149.83 41.7114 151.012 40.3043 152.538 39.3014C154.08 38.2985 155.905 37.7746 157.746 37.8045C159.227 37.7746 160.694 38.1338 162.01 38.8374C163.223 39.481 164.225 40.439 164.928 41.6215V38.3733H171.617ZM163.582 54.6294C164.48 53.4917 164.928 51.8452 164.928 49.6897C164.928 47.5342 164.48 45.8727 163.582 44.735C162.684 43.5825 161.397 43.0136 159.721 43.0136C158.045 43.0136 156.743 43.6124 155.815 44.8099C154.888 46.0074 154.424 47.6689 154.424 49.7945C154.424 51.92 154.888 53.5367 155.8 54.6593C156.713 55.782 158.015 56.3358 159.721 56.3358C161.397 56.3208 162.684 55.752 163.582 54.6294Z" fill="#422466"/>
<path d="M96.6623 61.4551H88.2525L79.2142 51.1416V61.4551H72.3457V28H79.2142V48.3126L87.8485 38.4482H96.0787L86.3072 49.4951L96.6623 61.4551Z" fill="#422466"/>
<path d="M53.5509 61.4551L40.3974 46.3067L47.5802 61.4551H42.5972L35.2648 46.0074L38.3174 61.4551H35.2498L32.1971 45.9774V61.4551H31V28H32.1971V44.6901L35.2947 28H38.3474L35.2348 44.765L42.7169 28H47.6401L40.2029 44.7051L53.7155 28H61.4519L47.4605 45.2889L61.5118 61.4551H53.5509Z" fill="#422466"/>
<path d="M177.289 61.0958C179.339 61.0958 181 59.4338 181 57.3836C181 55.3334 179.339 53.6714 177.289 53.6714C175.239 53.6714 173.578 55.3334 173.578 57.3836C173.578 59.4338 175.239 61.0958 177.289 61.0958Z" fill="#422466"/>
</g>
<defs>
<clipPath id="clip0_107_456">
<rect width="150" height="33.5" fill="white" transform="translate(31 28)"/>
</clipPath>
</defs>
</svg>
