<svg width="18" height="18" viewBox="0 0 18 18" fill="none" xmlns="http://www.w3.org/2000/svg">
<path d="M14.5201 2.51953H3.47672C2.9486 2.51953 2.52002 2.93803 2.52002 3.45337V14.5444C2.52002 15.0605 2.9486 15.4795 3.47672 15.4795H14.5201C15.0486 15.4795 15.48 15.0605 15.48 14.5444V3.45337C15.48 2.93803 15.0486 2.51953 14.5201 2.51953ZM6.36374 13.5633H4.44062V7.37863H6.36374V13.5633ZM5.40218 6.53299C5.2558 6.53299 5.11086 6.50415 4.97563 6.44811C4.8404 6.39207 4.71754 6.30993 4.61407 6.2064C4.51059 6.10286 4.42854 5.97994 4.37259 5.84468C4.31664 5.70941 4.28789 5.56445 4.28798 5.41807C4.28798 5.12259 4.40536 4.83921 4.6143 4.63028C4.82323 4.42134 5.10661 4.30396 5.40209 4.30396C5.69757 4.30396 5.98095 4.42134 6.18988 4.63028C6.39882 4.83921 6.5162 5.12259 6.5162 5.41807C6.5162 5.71361 6.39886 5.99706 6.18997 6.20612C5.98107 6.41518 5.69772 6.53275 5.40218 6.53299ZM13.563 13.5633H11.643V10.5558C11.643 9.83833 11.6289 8.91583 10.6438 8.91583C9.64334 8.91583 9.49088 9.69721 9.49088 10.5038V13.5634H7.56938V7.37863H9.41348V8.22319H9.43976C9.69644 7.73719 10.3236 7.22437 11.2588 7.22437C13.2039 7.22437 13.5632 8.50489 13.5632 10.1708V13.5633H13.563Z" fill="white"/>
</svg>
