<svg width="126" height="126" viewBox="0 0 126 126" fill="none" xmlns="http://www.w3.org/2000/svg">
<circle cx="62.2056" cy="61.9055" r="42.2056" fill="#212123"/>
<mask id="mask0_107_672" style="mask-type:alpha" maskUnits="userSpaceOnUse" x="35" y="30" width="55" height="69">
<path d="M76.2802 98.7186C75.3417 98.7186 74.6086 98.4546 74.0807 97.9268C73.6115 97.4575 73.2303 97.047 72.937 96.6951L69.9458 92.7361C67.6584 93.4985 65.0483 93.8798 62.1158 93.8798C56.7198 93.8798 52.0276 93 48.0393 91.2404C44.1096 89.4809 41.0011 86.8416 38.7137 83.3224C36.4849 79.7447 35.2825 75.2871 35.1066 69.9498C35.0479 67.4278 35.0186 64.9058 35.0186 62.3837C35.0186 59.8617 35.0479 57.3103 35.1066 54.7297C35.2825 49.451 36.5142 45.0228 38.8016 41.445C41.0891 37.8086 44.2269 35.0813 48.2153 33.2631C52.2036 31.4449 56.8371 30.5358 62.1158 30.5358C67.4531 30.5358 72.1159 31.4449 76.1042 33.2631C80.0925 35.0813 83.2304 37.8086 85.5178 41.445C87.8053 45.0228 89.037 49.451 89.2129 54.7297C89.3302 57.3103 89.3889 59.8617 89.3889 62.3837C89.3889 64.9058 89.3302 67.4278 89.2129 69.9498C88.861 77.2227 86.7495 82.8532 82.8785 86.8416L89.3009 95.9912C89.3595 96.0499 89.4182 96.1672 89.4768 96.3432C89.5355 96.5191 89.5648 96.6951 89.5648 96.871C89.6235 97.3402 89.4768 97.7508 89.1249 98.1027C88.773 98.5133 88.3331 98.7186 87.8053 98.7186H76.2802ZM62.1158 81.211C65.2243 81.211 67.7463 80.2725 69.6818 78.3957C71.676 76.5188 72.7317 73.5276 72.849 69.422C72.9663 66.8413 73.025 64.4072 73.025 62.1198C73.025 59.8324 72.9663 57.457 72.849 54.9936C72.7904 52.237 72.2919 50.0082 71.3534 48.3073C70.415 46.5477 69.154 45.2574 67.5704 44.4363C65.9868 43.6151 64.1686 43.2046 62.1158 43.2046C60.1216 43.2046 58.3327 43.6151 56.7491 44.4363C55.1655 45.2574 53.9045 46.5477 52.9661 48.3073C52.0276 50.0082 51.5291 52.237 51.4704 54.9936C51.4118 57.457 51.3825 59.8324 51.3825 62.1198C51.3825 64.4072 51.4118 66.8413 51.4704 69.422C51.5877 73.5276 52.6142 76.5188 54.5497 78.3957C56.5438 80.2725 59.0659 81.211 62.1158 81.211Z" fill="black"/>
</mask>
<g mask="url(#mask0_107_672)">
<path d="M75.1436 94.46C74.2476 94.46 73.5476 94.208 73.0436 93.704C72.5956 93.256 72.2316 92.864 71.9516 92.528L69.0956 88.748C66.9116 89.476 64.4196 89.84 61.6196 89.84C56.4676 89.84 51.9876 89 48.1796 87.32C44.4276 85.64 41.4596 83.12 39.2756 79.76C37.1476 76.344 35.9996 72.088 35.8316 66.992C35.7756 64.584 35.7476 62.176 35.7476 59.768C35.7476 57.36 35.7756 54.924 35.8316 52.46C35.9996 47.42 37.1756 43.192 39.3596 39.776C41.5436 36.304 44.5396 33.7 48.3476 31.964C52.1556 30.228 56.5796 29.36 61.6196 29.36C66.7156 29.36 71.1676 30.228 74.9756 31.964C78.7836 33.7 81.7796 36.304 83.9636 39.776C86.1476 43.192 87.3236 47.42 87.4916 52.46C87.6036 54.924 87.6596 57.36 87.6596 59.768C87.6596 62.176 87.6036 64.584 87.4916 66.992C87.1556 73.936 85.1396 79.312 81.4436 83.12L87.5756 91.856C87.6316 91.912 87.6876 92.024 87.7436 92.192C87.7996 92.36 87.8276 92.528 87.8276 92.696C87.8836 93.144 87.7436 93.536 87.4076 93.872C87.0716 94.264 86.6516 94.46 86.1476 94.46H75.1436ZM61.6196 77.744C64.5876 77.744 66.9956 76.848 68.8436 75.056C70.7476 73.264 71.7556 70.408 71.8676 66.488C71.9796 64.024 72.0356 61.7 72.0356 59.516C72.0356 57.332 71.9796 55.064 71.8676 52.712C71.8116 50.08 71.3356 47.952 70.4396 46.328C69.5436 44.648 68.3396 43.416 66.8276 42.632C65.3156 41.848 63.5796 41.456 61.6196 41.456C59.7156 41.456 58.0076 41.848 56.4956 42.632C54.9836 43.416 53.7796 44.648 52.8836 46.328C51.9876 47.952 51.5116 50.08 51.4556 52.712C51.3996 55.064 51.3716 57.332 51.3716 59.516C51.3716 61.7 51.3996 64.024 51.4556 66.488C51.5676 70.408 52.5476 73.264 54.3956 75.056C56.2996 76.848 58.7076 77.744 61.6196 77.744Z" fill="white"/>
</g>
<rect width="59.4444" height="17.8333" transform="translate(33.0779 52.9888)" fill="#212123"/>
<path d="M38.3371 67.8C38.2151 67.8 38.1152 67.7612 38.0375 67.6835C37.9598 67.6059 37.921 67.506 37.921 67.3839V56.565C37.921 56.443 37.9598 56.3431 38.0375 56.2654C38.1152 56.1878 38.2151 56.1489 38.3371 56.1489H40.5342C40.6452 56.1489 40.7395 56.1878 40.8171 56.2654C40.9059 56.3431 40.9503 56.443 40.9503 56.565V65.2867H45.9769C46.099 65.2867 46.1989 65.3311 46.2765 65.4199C46.3653 65.4976 46.4097 65.5974 46.4097 65.7195V67.3839C46.4097 67.506 46.3653 67.6059 46.2765 67.6835C46.1989 67.7612 46.099 67.8 45.9769 67.8H38.3371ZM54.3136 67.9665C53.2927 67.9665 52.405 67.8 51.6505 67.4672C50.8959 67.1343 50.3078 66.6349 49.8862 65.9692C49.4645 65.2923 49.2315 64.449 49.1871 63.4392C49.176 62.9621 49.1704 62.4849 49.1704 62.0078C49.1704 61.5306 49.176 61.048 49.1871 60.5597C49.2315 59.561 49.4645 58.7233 49.8862 58.0464C50.3189 57.3584 50.9126 56.8425 51.6671 56.4985C52.4217 56.1545 53.3038 55.9825 54.3136 55.9825C55.3122 55.9825 56.1889 56.1545 56.9434 56.4985C57.709 56.8425 58.3082 57.3584 58.741 58.0464C59.1738 58.7233 59.4068 59.561 59.4401 60.5597C59.4623 61.048 59.4734 61.5306 59.4734 62.0078C59.4734 62.4849 59.4623 62.9621 59.4401 63.4392C59.3957 64.449 59.1627 65.2923 58.741 65.9692C58.3193 66.6349 57.7312 67.1343 56.9767 67.4672C56.2221 67.8 55.3344 67.9665 54.3136 67.9665ZM54.3136 65.5697C54.9017 65.5697 55.3788 65.3922 55.745 65.0371C56.1223 64.682 56.322 64.1161 56.3442 63.3393C56.3664 62.8511 56.3775 62.3906 56.3775 61.9578C56.3775 61.5251 56.3664 61.0757 56.3442 60.6096C56.322 60.0881 56.2221 59.6665 56.0446 59.3447C55.8782 59.0118 55.6451 58.7677 55.3455 58.6123C55.0459 58.457 54.702 58.3793 54.3136 58.3793C53.9363 58.3793 53.5979 58.457 53.2983 58.6123C52.9987 58.7677 52.7601 59.0118 52.5826 59.3447C52.405 59.6665 52.3052 60.0881 52.283 60.6096C52.2719 61.0757 52.2663 61.5251 52.2663 61.9578C52.2663 62.3906 52.2719 62.8511 52.283 63.3393C52.3162 64.1161 52.516 64.682 52.8822 65.0371C53.2483 65.3922 53.7255 65.5697 54.3136 65.5697ZM62.324 67.8C62.2352 67.8 62.152 67.7668 62.0743 67.7002C62.0077 67.6225 61.9744 67.5393 61.9744 67.4505C61.9744 67.395 61.98 67.3451 61.9911 67.3007L65.9025 56.615C65.9358 56.4929 66.0024 56.3875 66.1023 56.2987C66.2132 56.1989 66.363 56.1489 66.5517 56.1489H69.015C69.2037 56.1489 69.3479 56.1989 69.4478 56.2987C69.5588 56.3875 69.6309 56.4929 69.6642 56.615L73.559 67.3007C73.5812 67.3451 73.5923 67.395 73.5923 67.4505C73.5923 67.5393 73.5534 67.6225 73.4758 67.7002C73.4092 67.7668 73.326 67.8 73.2261 67.8H71.1788C71.0124 67.8 70.8848 67.7612 70.796 67.6835C70.7183 67.5948 70.6684 67.5171 70.6462 67.4505L69.9971 65.7528H65.553L64.9205 67.4505C64.8983 67.5171 64.8484 67.5948 64.7707 67.6835C64.693 67.7612 64.5599 67.8 64.3712 67.8H62.324ZM66.2354 63.356H69.3313L67.7667 58.9618L66.2354 63.356ZM77.1512 67.8C77.0291 67.8 76.9293 67.7612 76.8516 67.6835C76.7739 67.6059 76.7351 67.506 76.7351 67.3839V56.565C76.7351 56.443 76.7739 56.3431 76.8516 56.2654C76.9293 56.1878 77.0291 56.1489 77.1512 56.1489H78.9155C79.1041 56.1489 79.2373 56.1933 79.315 56.2821C79.4037 56.3598 79.4592 56.4208 79.4814 56.4652L83.5427 62.8733V56.565C83.5427 56.443 83.5815 56.3431 83.6592 56.2654C83.7368 56.1878 83.8367 56.1489 83.9588 56.1489H85.9561C86.0782 56.1489 86.178 56.1878 86.2557 56.2654C86.3334 56.3431 86.3722 56.443 86.3722 56.565V67.3839C86.3722 67.4949 86.3334 67.5948 86.2557 67.6835C86.178 67.7612 86.0782 67.8 85.9561 67.8H84.1751C83.9976 67.8 83.8645 67.7557 83.7757 67.6669C83.698 67.5781 83.6481 67.5171 83.6259 67.4838L79.5646 61.3254V67.3839C79.5646 67.506 79.5258 67.6059 79.4481 67.6835C79.3705 67.7612 79.2706 67.8 79.1485 67.8H77.1512Z" fill="white"/>
<circle cx="63" cy="62" r="44.55" stroke="#F0F0F2" stroke-width="0.9"/>
<circle cx="63" cy="62" r="53.55" stroke="#F0F0F2" stroke-width="0.9"/>
<circle cx="63" cy="63" r="62.55" stroke="#F0F0F2" stroke-width="0.9"/>
</svg>
