<svg width="82" height="71" viewBox="0 0 82 71" fill="none" xmlns="http://www.w3.org/2000/svg">
<rect x="0.0143331" y="-0.230633" width="54.103" height="53.6722" rx="3.36261" transform="matrix(-0.715546 -0.698566 0.796533 -0.604596 39.1748 70.3456)" stroke="#FFE478" stroke-width="0.353959"/>
<rect x="0.0143331" y="-0.230633" width="43.4955" height="43.1486" rx="3.36261" transform="matrix(-0.715546 -0.698566 0.796533 -0.604596 39.0674 63.3525)" fill="#F3DF6C" stroke="#FFFDF5" stroke-width="0.353959"/>
<path d="M36.7212 42.9791V41.8577L36.9251 41.6538H37.6897C37.9445 41.6538 38.1739 41.5519 38.3778 41.348C38.5986 41.1271 38.7091 40.8893 38.7091 40.6344V30.3385C38.7091 30.0326 38.6241 29.7948 38.4542 29.6249C38.2843 29.438 38.0634 29.3445 37.7916 29.3445C37.4518 29.3445 37.146 29.455 36.8741 29.6758H36.6703L36.186 28.8858L36.2115 28.6819L41.1301 25.3434H42.0731L42.3279 25.5982V40.7109C42.3619 40.9487 42.4808 41.1696 42.6847 41.3735C42.8886 41.5604 43.1095 41.6538 43.3473 41.6538H44.1629L44.3667 41.8577V42.9791L44.1629 43.1829H36.9251L36.7212 42.9791Z" fill="#333333"/>
</svg>
