<svg width="88" height="23" viewBox="0 0 88 23" fill="none" xmlns="http://www.w3.org/2000/svg">
<path fill-rule="evenodd" clip-rule="evenodd" d="M12.7285 21.9595C12.9005 22.1315 13.1394 22.2175 13.4452 22.2175H17.2006C17.3727 22.2175 17.516 22.1506 17.6307 22.0168C17.7453 21.9022 17.7931 21.7684 17.774 21.6155C17.774 21.5581 17.7644 21.5008 17.7453 21.4435C17.7262 21.3861 17.7071 21.3479 17.688 21.3288L15.5953 18.3474C16.5231 17.3914 17.1407 16.1459 17.4481 14.6109H11.9612C11.7951 15.0055 11.5731 15.3336 11.2951 15.5953C10.6644 16.2068 9.84259 16.5126 8.82967 16.5126C7.83585 16.5126 7.01404 16.2068 6.36424 15.5953C6.09442 15.3336 5.87882 15.0055 5.71744 14.6109H0.220809C0.411648 15.5915 0.739393 16.4548 1.20405 17.2006C1.94941 18.3474 2.96233 19.2074 4.24283 19.7807C5.54243 20.3541 7.07138 20.6408 8.82967 20.6408C9.78526 20.6408 10.6357 20.5166 11.3811 20.2681L12.3558 21.5581C12.4514 21.6728 12.5756 21.8066 12.7285 21.9595ZM0.0851263 13.6881C0.0570341 13.4144 0.0382145 13.1327 0.0286677 12.8432C0.00955594 12.0213 0 11.1995 0 10.3777C0 9.55591 0.00955594 8.72455 0.0286677 7.88363C0.0860033 6.16357 0.487352 4.72062 1.23271 3.5548C1.97807 2.36987 3.00056 1.48117 4.30016 0.888701C5.59977 0.296234 7.1096 0 8.82967 0C10.5688 0 12.0882 0.296234 13.3878 0.888701C14.6874 1.48117 15.7099 2.36987 16.4553 3.5548C17.2006 4.72062 17.602 6.16357 17.6593 7.88363C17.6693 8.10393 17.678 8.32358 17.6854 8.54258H12.3513C12.3444 8.35325 12.3363 8.16227 12.3271 7.96963C12.308 7.07138 12.1456 6.34513 11.8398 5.79088C11.534 5.21753 11.1231 4.79707 10.6071 4.5295C10.091 4.26194 9.49858 4.12816 8.82967 4.12816C8.17986 4.12816 7.59695 4.26194 7.08093 4.5295C6.56491 4.79707 6.15401 5.21753 5.84822 5.79088C5.54243 6.34513 5.37998 7.07138 5.36087 7.96963C5.35628 8.16227 5.35225 8.35325 5.34876 8.54258H0.0851264L0.0851263 13.6881ZM21.0457 14.6109C21.2115 15.5972 21.5153 16.4605 21.957 17.2006C22.6642 18.3665 23.658 19.2361 24.9385 19.8094C26.2381 20.3637 27.7479 20.6408 29.468 20.6408C31.2072 20.6408 32.717 20.3637 33.9975 19.8094C35.278 19.2361 36.2718 18.3665 36.9789 17.2006C37.4207 16.4605 37.7244 15.5972 37.8902 14.6109H32.5347C32.3896 14.9466 32.1988 15.2365 31.9621 15.4806C31.3696 16.0922 30.5382 16.398 29.468 16.398C28.3786 16.398 27.5281 16.0922 26.9165 15.4806C26.6873 15.2365 26.5023 14.9466 26.3618 14.6109H21.0457ZM26.0278 8.54258H20.8963V1.00337C20.8963 0.793141 20.9632 0.621135 21.097 0.487352C21.2308 0.353569 21.4028 0.286677 21.613 0.286677H25.3112C25.5214 0.286677 25.6934 0.353569 25.8272 0.487352C25.961 0.621135 26.0278 0.793141 26.0278 1.00337V8.54258ZM32.8794 8.54258H38.0396V1.00337C38.0396 0.793141 37.9632 0.621135 37.8103 0.487352C37.6765 0.353569 37.5141 0.286677 37.3229 0.286677H33.5961C33.405 0.286677 33.233 0.353569 33.0801 0.487352C32.9463 0.621135 32.8794 0.793141 32.8794 1.00337V8.54258ZM41.8412 14.6109V19.6374C41.8412 19.8476 41.9081 20.0196 42.0419 20.1534C42.1757 20.2872 42.3477 20.3541 42.5579 20.3541H46.3994C46.6096 20.3541 46.7817 20.2872 46.9154 20.1534C47.0492 20.0196 47.1161 19.8476 47.1161 19.6374V14.6109H41.8412ZM47.1161 8.54258H41.8412V1.00337C41.8412 0.793141 41.9081 0.621135 42.0419 0.487352C42.1757 0.353569 42.3477 0.286677 42.5579 0.286677H46.3994C46.6096 0.286677 46.7817 0.353569 46.9154 0.487352C47.0492 0.621135 47.1161 0.793141 47.1161 1.00337V8.54258ZM50.7123 14.6109C50.9068 15.5678 51.2295 16.4119 51.6805 17.1433C52.4068 18.29 53.4102 19.1596 54.6907 19.7521C55.9903 20.3445 57.5479 20.6408 59.3635 20.6408C60.6249 20.6408 61.7907 20.4879 62.861 20.1821C63.9312 19.8572 64.8677 19.3985 65.6704 18.806C66.4731 18.1945 67.0942 17.4682 67.5338 16.6273C67.8633 16.0094 68.0794 15.3373 68.1821 14.6109H62.621C62.368 15.2171 62.018 15.6599 61.5709 15.9393C60.9593 16.3215 60.214 16.5126 59.3348 16.5126C58.2837 16.5126 57.4523 16.2259 56.8407 15.6526C56.5634 15.384 56.3431 15.0367 56.1798 14.6109H50.7123ZM55.8175 8.54258H50.4902C50.4943 8.28105 50.4993 8.02317 50.5052 7.76896C50.5816 6.10623 50.983 4.70151 51.7092 3.5548C52.4355 2.38898 53.4484 1.50984 54.748 0.917368C56.0476 0.305789 57.5861 0 59.3635 0C60.6249 0 61.7907 0.162451 62.861 0.487352C63.9312 0.793141 64.8677 1.25182 65.6704 1.8634C66.4731 2.45587 67.0942 3.18212 67.5338 4.04215C67.9925 4.88307 68.2314 5.83866 68.2505 6.90893C68.2696 7.08093 68.2123 7.22427 68.0785 7.33894C67.9638 7.45361 67.8205 7.51095 67.6485 7.51095H63.7783C63.5299 7.51095 63.3388 7.46317 63.205 7.36761C63.0712 7.25294 62.9565 7.05227 62.861 6.76559C62.5934 5.75266 62.1538 5.06464 61.5423 4.70151C60.9498 4.31927 60.214 4.12816 59.3348 4.12816C58.2837 4.12816 57.4523 4.42439 56.8407 5.01686C56.2292 5.59021 55.8947 6.55536 55.8374 7.9123C55.8297 8.12171 55.8231 8.3318 55.8175 8.54258ZM71.2649 14.6109V19.6374C71.2649 19.8476 71.3318 20.0196 71.4655 20.1534C71.5993 20.2872 71.7713 20.3541 71.9816 20.3541H75.5937C75.8039 20.3541 75.9759 20.2872 76.1097 20.1534C76.2435 20.0196 76.3104 19.8476 76.3104 19.6374V14.6109H71.2649ZM77.8424 14.6109L81.9866 19.7807C82.0439 19.8572 82.1586 19.9719 82.3306 20.1248C82.5217 20.2777 82.7893 20.3541 83.1333 20.3541H87.4048C87.5577 20.3541 87.6915 20.2968 87.8062 20.1821C87.9399 20.0483 88.0068 19.905 88.0068 19.7521C88.0068 19.5992 87.9686 19.4845 87.8922 19.4081L84.1643 14.6109H77.8424ZM81.5625 8.54258H71.2649V1.00337C71.2649 0.793141 71.3318 0.621135 71.4655 0.487352C71.5993 0.353569 71.7713 0.286677 71.9816 0.286677H75.5937C75.8039 0.286677 75.9759 0.353569 76.1097 0.487352C76.2435 0.621135 76.3104 0.793141 76.3104 1.00337V7.36761L81.6139 0.831364C81.6904 0.716694 81.8146 0.602023 81.9866 0.487352C82.1777 0.353569 82.4262 0.286677 82.732 0.286677H86.8601C87.0321 0.286677 87.1755 0.353569 87.2901 0.487352C87.4048 0.602023 87.4622 0.735806 87.4622 0.888701C87.4622 1.02248 87.4239 1.13715 87.3475 1.23271L81.5625 8.54258Z" fill="#003BF2"/>
<path d="M31.285 13.6754C31.2452 13.6754 31.2127 13.6627 31.1874 13.6374C31.1621 13.6121 31.1494 13.5796 31.1494 13.5398V10.0144C31.1494 9.97466 31.1621 9.94212 31.1874 9.91681C31.2127 9.8915 31.2452 9.87885 31.285 9.87885H32.0009C32.0371 9.87885 32.0678 9.8915 32.0931 9.91681C32.1221 9.94212 32.1365 9.97466 32.1365 10.0144V12.8564H33.7744C33.8142 12.8564 33.8468 12.8709 33.8721 12.8998C33.901 12.9251 33.9155 12.9577 33.9155 12.9974V13.5398C33.9155 13.5796 33.901 13.6121 33.8721 13.6374C33.8468 13.6627 33.8142 13.6754 33.7744 13.6754H31.285ZM39.8536 13.7296C39.521 13.7296 39.2317 13.6754 38.9858 13.5669C38.74 13.4584 38.5483 13.2957 38.4109 13.0788C38.2735 12.8582 38.1976 12.5834 38.1831 12.2544C38.1795 12.0989 38.1777 11.9434 38.1777 11.788C38.1777 11.6325 38.1795 11.4752 38.1831 11.3161C38.1976 10.9907 38.2735 10.7177 38.4109 10.4971C38.5519 10.273 38.7454 10.1048 38.9913 9.99274C39.2371 9.88065 39.5246 9.82461 39.8536 9.82461C40.179 9.82461 40.4647 9.88065 40.7105 9.99274C40.96 10.1048 41.1553 10.273 41.2963 10.4971C41.4373 10.7177 41.5132 10.9907 41.5241 11.3161C41.5313 11.4752 41.5349 11.6325 41.5349 11.788C41.5349 11.9434 41.5313 12.0989 41.5241 12.2544C41.5096 12.5834 41.4337 12.8582 41.2963 13.0788C41.1589 13.2957 40.9673 13.4584 40.7214 13.5669C40.4755 13.6754 40.1863 13.7296 39.8536 13.7296ZM39.8536 12.9486C40.0452 12.9486 40.2007 12.8908 40.32 12.7751C40.443 12.6594 40.5081 12.475 40.5153 12.2219C40.5225 12.0628 40.5261 11.9127 40.5261 11.7717C40.5261 11.6307 40.5225 11.4842 40.5153 11.3324C40.5081 11.1624 40.4755 11.025 40.4177 10.9202C40.3634 10.8117 40.2875 10.7322 40.1899 10.6815C40.0923 10.6309 39.9802 10.6056 39.8536 10.6056C39.7307 10.6056 39.6204 10.6309 39.5228 10.6815C39.4251 10.7322 39.3474 10.8117 39.2896 10.9202C39.2317 11.025 39.1992 11.1624 39.1919 11.3324C39.1883 11.4842 39.1865 11.6307 39.1865 11.7717C39.1865 11.9127 39.1883 12.0628 39.1919 12.2219C39.2028 12.475 39.2679 12.6594 39.3872 12.7751C39.5065 12.8908 39.662 12.9486 39.8536 12.9486ZM45.8265 13.6754C45.7975 13.6754 45.7704 13.6645 45.7451 13.6428C45.7234 13.6175 45.7126 13.5904 45.7126 13.5615C45.7126 13.5434 45.7144 13.5271 45.718 13.5127L46.9925 10.0307C47.0034 9.99093 47.0251 9.95658 47.0576 9.92766C47.0938 9.89512 47.1426 9.87885 47.2041 9.87885H48.0068C48.0682 9.87885 48.1152 9.89512 48.1478 9.92766C48.1839 9.95658 48.2074 9.99093 48.2183 10.0307L49.4874 13.5127C49.4946 13.5271 49.4983 13.5434 49.4983 13.5615C49.4983 13.5904 49.4856 13.6175 49.4603 13.6428C49.4386 13.6645 49.4115 13.6754 49.3789 13.6754H48.7118C48.6576 13.6754 48.616 13.6627 48.5871 13.6374C48.5618 13.6085 48.5455 13.5832 48.5383 13.5615L48.3268 13.0083H46.8787L46.6726 13.5615C46.6653 13.5832 46.6491 13.6085 46.6237 13.6374C46.5984 13.6627 46.555 13.6754 46.4936 13.6754H45.8265ZM47.101 12.2273H48.1098L47.6 10.7954L47.101 12.2273ZM54.0206 13.6754C53.9808 13.6754 53.9483 13.6627 53.923 13.6374C53.8977 13.6121 53.885 13.5796 53.885 13.5398V10.0144C53.885 9.97466 53.8977 9.94212 53.923 9.91681C53.9483 9.8915 53.9808 9.87885 54.0206 9.87885H54.5955C54.657 9.87885 54.7004 9.89331 54.7257 9.92223C54.7546 9.94754 54.7727 9.96743 54.7799 9.98189L56.1033 12.07V10.0144C56.1033 9.97466 56.1159 9.94212 56.1412 9.91681C56.1665 9.8915 56.1991 9.87885 56.2389 9.87885H56.8897C56.9295 9.87885 56.962 9.8915 56.9873 9.91681C57.0126 9.94212 57.0253 9.97466 57.0253 10.0144V13.5398C57.0253 13.576 57.0126 13.6085 56.9873 13.6374C56.962 13.6627 56.9295 13.6754 56.8897 13.6754H56.3094C56.2515 13.6754 56.2081 13.6609 56.1792 13.632C56.1539 13.6031 56.1376 13.5832 56.1304 13.5723L54.807 11.5656V13.5398C54.807 13.5796 54.7944 13.6121 54.7691 13.6374C54.7437 13.6627 54.7112 13.6754 54.6714 13.6754H54.0206Z" fill="#003BF2"/>
</svg>
