<svg width="82" height="71" viewBox="0 0 82 71" fill="none" xmlns="http://www.w3.org/2000/svg">
<rect x="0.0143331" y="-0.230633" width="54.103" height="53.6722" rx="3.36261" transform="matrix(-0.715546 -0.698566 0.796533 -0.604596 39.1748 70.3456)" stroke="#FFE478" stroke-width="0.353959"/>
<rect x="0.0143331" y="-0.230633" width="43.4955" height="43.1486" rx="3.36261" transform="matrix(-0.715546 -0.698566 0.796533 -0.604596 39.1438 63.2664)" fill="#F3DF6C" stroke="#FFE478" stroke-width="0.353959"/>
<path d="M40.4277 44.1617C39.5273 44.1617 38.6608 44.0512 37.8283 43.8304C37.0127 43.6265 36.3246 43.3716 35.764 43.0658L35.3562 39.396H35.7385C36.554 39.9396 37.3186 40.3644 38.0321 40.6702C38.7457 40.959 39.5018 41.1035 40.3003 41.1035C41.3707 41.1035 42.2711 40.8146 43.0017 40.237C43.7323 39.6593 44.0976 38.7928 44.0976 37.6375C44.0976 36.6011 43.7663 35.7686 43.1037 35.14C42.441 34.4943 41.4896 34.1715 40.2493 34.1715C39.6887 34.1715 39.0855 34.2395 38.4399 34.3754L38.0831 33.5854L41.4726 29.0235H35.4072V25.9653H46.85V26.475L42.7724 31.7504C44.2505 32.0223 45.4143 32.6509 46.2638 33.6363C47.1303 34.6218 47.5635 35.9215 47.5635 37.5356C47.5635 38.8948 47.2577 40.0756 46.6461 41.078C46.0514 42.0804 45.2104 42.8449 44.1231 43.3716C43.0527 43.8983 41.8209 44.1617 40.4277 44.1617Z" fill="#333333"/>
</svg>
