<svg width="34" height="34" viewBox="0 0 34 34" fill="none" xmlns="http://www.w3.org/2000/svg">
<path d="M16.9999 2.83337C9.19409 2.83337 2.83325 9.19421 2.83325 17C2.83325 24.8059 9.19409 31.1667 16.9999 31.1667C24.8058 31.1667 31.1666 24.8059 31.1666 17C31.1666 9.19421 24.8058 2.83337 16.9999 2.83337ZM23.7716 13.7417L15.7391 21.7742C15.5408 21.9725 15.2716 22.0859 14.9883 22.0859C14.7049 22.0859 14.4358 21.9725 14.2374 21.7742L10.2283 17.765C9.81742 17.3542 9.81742 16.6742 10.2283 16.2634C10.6391 15.8525 11.3191 15.8525 11.7299 16.2634L14.9883 19.5217L22.2699 12.24C22.6808 11.8292 23.3608 11.8292 23.7716 12.24C24.1824 12.6509 24.1824 13.3167 23.7716 13.7417Z" fill="#292D32"/>
</svg>
