<svg width="82" height="70" viewBox="0 0 82 70" fill="none" xmlns="http://www.w3.org/2000/svg">
<rect x="-0.0158601" y="-0.227305" width="53.9355" height="53.4397" rx="3.33277" transform="matrix(-0.803721 -0.595006 0.713304 -0.700855 43.7646 69.6039)" stroke="#FFE478" stroke-width="0.350818"/>
<rect x="-0.0158601" y="-0.227305" width="43.3612" height="42.962" rx="3.33277" transform="matrix(-0.803721 -0.595006 0.713304 -0.700855 43.3191 62.5876)" fill="#F3DF6C" stroke="#FFE478" stroke-width="0.350818"/>
<path d="M32.7246 42.8327L39.6569 34.2194C40.1327 33.6132 40.481 33.0491 40.7019 32.5271C40.9398 32.0051 41.0587 31.4578 41.0587 30.8852C41.0587 30.1275 40.8123 29.5129 40.3196 29.0414C39.8438 28.5699 39.1982 28.3341 38.3826 28.3341C37.4991 28.3341 36.675 28.5951 35.9104 29.1171C35.1628 29.6223 34.5257 30.279 33.9989 31.0873H33.6166L33.8205 27.248C34.4322 26.6418 35.1798 26.1703 36.0633 25.8335C36.9469 25.4799 37.8474 25.303 38.7649 25.303C40.5999 25.303 42.0187 25.7661 43.0212 26.6923C44.0236 27.6184 44.5249 28.873 44.5249 30.4558C44.5249 31.4325 44.3295 32.3671 43.9387 33.2596C43.5649 34.1521 42.9532 35.1119 42.1036 36.1391L38.612 40.3068H45.0856V43.3379H32.7246V42.8327Z" fill="#333333"/>
</svg>
