<svg width="252" height="89" viewBox="0 0 252 89" fill="none" xmlns="http://www.w3.org/2000/svg">
<rect width="250.3" height="89" transform="translate(0.900146)" fill="white"/>
<g clip-path="url(#clip0_107_479)">
<path fill-rule="evenodd" clip-rule="evenodd" d="M201.374 72.7633L201.422 72.7155V74.3889C200.8 74.9626 200.465 75.1539 199.892 75.1539C199.222 75.1539 198.744 74.9148 198.744 74.1498C198.744 73.0024 199.987 72.7155 200.657 72.7155C200.752 72.7155 201.135 72.7633 201.374 72.7633ZM131.283 72.7633C131.331 72.8111 131.379 72.8111 131.427 72.7155V74.3411C130.901 74.9626 130.327 75.1539 129.849 75.1539C129.228 75.1539 128.749 74.9626 128.749 74.1976C128.749 73.0502 129.897 72.7155 130.614 72.7155C130.71 72.7155 131.044 72.7155 131.283 72.7633ZM125.164 73.1936C125.164 74.7714 123.968 74.9626 122.917 74.9626C122.821 74.9626 122.343 74.9626 122.104 74.9148V71.5202C122.391 71.5681 122.869 71.5202 123.012 71.5202C124.207 71.5202 125.164 71.7593 125.164 73.1936ZM114.024 70.9465V74.5801C113.689 74.9626 113.115 75.106 112.828 75.106C111.203 75.106 110.773 73.9586 110.773 72.7633C110.773 71.6636 111.346 70.325 112.781 70.325C113.163 70.325 113.689 70.4206 114.024 70.9465ZM106.278 70.3728C106.661 70.4206 107.426 71.2334 107.426 71.6636V71.9027H103.888V71.7593C104.175 70.7553 104.844 70.325 105.705 70.325C105.8 70.325 106.087 70.325 106.278 70.3728ZM160.496 72.6677C160.496 73.6239 160.209 75.106 158.727 75.106C157.197 75.106 157.053 73.5761 157.053 72.7155C157.053 71.8549 157.292 70.2772 158.774 70.2772C160.257 70.2772 160.496 71.7593 160.496 72.6677ZM189.756 69.4166V76.0145H188.608V70.3728H187.7V69.4166H189.756ZM96.1427 69.4166V76.0145H94.9475V70.3728H94.039V69.4166H96.1427ZM175.174 73.1458H172.64L173.978 69.3688L175.174 73.1458ZM201.613 69.6079C202.234 69.8469 202.665 71.0421 202.665 71.568V74.6757C202.713 74.9626 202.808 75.2973 203.191 75.5363V76.11H202.617C202.234 76.0145 201.661 75.6797 201.565 75.2973C201.23 75.871 199.987 76.1579 199.461 76.1579C198.266 76.1579 197.549 75.1539 197.549 74.1498C197.549 72.3808 199.461 71.7593 200.609 71.7593C200.705 71.7593 201.135 71.8549 201.422 71.9027C201.469 71.8549 201.469 71.7593 201.469 71.6636C201.469 70.6119 200.657 70.325 199.987 70.325C199.509 70.325 198.792 70.4684 198.41 70.8987C198.218 70.6119 197.884 70.0859 197.884 69.9425C197.884 69.8469 198.314 69.6079 198.505 69.56C198.697 69.4644 198.983 69.3688 199.318 69.321C199.461 69.2731 199.844 69.2731 199.94 69.2731C200.465 69.2731 201.135 69.4166 201.613 69.6079ZM196.593 69.9425C196.449 70.1816 196.258 70.4684 196.067 70.7553C195.398 70.3728 195.063 70.2772 194.489 70.2772C192.816 70.2772 192.433 71.7115 192.433 72.7633C192.433 74.1498 193.103 75.1539 194.537 75.1539C195.015 75.1539 195.732 74.867 196.162 74.5323L196.641 75.4885C196.258 75.8232 194.919 76.1579 194.298 76.1579C193.055 76.1579 191.668 75.3929 191.238 73.6239C191.238 73.5283 191.19 73.3371 191.19 73.2414V72.333C191.381 70.0859 193.007 69.2731 194.537 69.2731C195.158 69.2731 196.019 69.56 196.593 69.9425ZM187.174 69.3688L186.744 70.5162C186.505 70.4206 186.027 70.2772 185.931 70.2772C185.166 70.2772 184.401 71.1378 184.401 71.8071V76.0145H183.206V69.4166H184.401C184.401 69.7034 184.401 70.0381 184.449 70.325C184.831 69.5122 185.692 69.2731 186.266 69.2731C186.409 69.2731 186.887 69.321 187.174 69.3688ZM167.046 69.4644C166.902 69.8469 166.759 70.1816 166.616 70.5162C166.376 70.4206 165.898 70.2772 165.803 70.2772C165.038 70.2772 164.273 71.1378 164.273 71.8071V76.0145H163.078V69.4166H164.273C164.273 69.7034 164.273 70.0381 164.321 70.325C164.703 69.5122 165.564 69.2731 166.137 69.2731C166.424 69.2731 167.046 69.4644 167.046 69.4644ZM161.739 72.6677C161.739 74.3411 161.022 76.1579 158.775 76.1579C156.575 76.1579 155.762 74.3411 155.762 72.6677C155.762 70.8987 156.767 69.2731 158.775 69.2731C161.069 69.2731 161.739 71.0421 161.739 72.6677ZM138.12 69.321C138.933 69.321 139.698 70.5162 139.698 71.2334V76.0145H138.551V71.6636C138.503 70.6596 137.929 70.2772 137.212 70.2772C137.069 70.2772 136.973 70.2294 136.925 70.2772C136.638 70.325 135.634 70.7553 135.634 71.1378V76.0145H134.487V69.4166H135.3C135.395 69.6556 135.539 69.9425 135.634 70.1816C136.112 69.5122 136.877 69.2731 137.547 69.2731C137.642 69.2731 137.929 69.321 138.12 69.321ZM132.383 70.564C132.431 70.8031 132.622 71.1856 132.622 71.329V74.4367C132.718 74.7236 132.67 75.2495 133.148 75.5363V76.1101H132.622C132.288 76.0623 131.666 75.7754 131.57 75.2973C131.283 75.871 129.897 76.1579 129.419 76.1579C128.271 76.1579 127.506 75.1539 127.506 74.1498C127.506 72.3808 129.419 71.7593 130.566 71.7593C130.662 71.7593 131.14 71.8549 131.427 71.9027C131.475 71.8549 131.475 71.8549 131.475 71.7115C131.475 70.7553 130.805 70.325 129.993 70.325C129.419 70.325 128.941 70.4206 128.415 70.8987C128.176 70.7553 127.937 70.1816 127.841 69.9425C128.319 69.56 129.275 69.2731 129.945 69.2731C130.614 69.2731 132.048 69.4644 132.383 70.564ZM108.621 72.094C108.621 72.1896 108.621 72.5721 108.573 72.8111H103.792V73.1936C103.888 74.5323 104.892 75.1539 105.896 75.1539C106.422 75.1539 106.9 75.0104 107.522 74.5801C107.713 74.8191 107.856 75.106 108.048 75.3929C107.713 75.8232 106.231 76.1579 105.657 76.1579C103.553 76.1579 102.549 74.4367 102.549 72.7633C102.549 70.9943 103.649 69.2731 105.657 69.2731C107.426 69.2731 108.621 70.2772 108.621 72.094ZM91.6007 69.4644C91.7441 69.5122 92.1266 69.8947 92.27 70.0859C92.3179 70.0859 92.7003 71.0422 92.7003 71.2334V76.0145H91.5529V71.6637C91.3617 70.564 90.9791 70.2772 90.2142 70.2772C89.6883 70.2772 89.1624 70.4685 88.6364 71.1378V76.0145H87.489V69.4166H88.3018C88.3974 69.6556 88.5408 69.9425 88.6364 70.1816C89.1145 69.5122 89.8795 69.2732 90.5488 69.2732C90.6445 69.2732 91.266 69.321 91.6007 69.4644ZM124.686 69.1776C124.686 70.4206 123.634 70.564 122.821 70.564H122.104V67.9823H122.869C123.586 67.9823 124.686 67.9823 124.686 69.1776ZM99.585 69.4166H101.402V70.325H99.585V74.0542C99.8241 74.9148 100.159 75.1539 100.733 75.1539C100.876 75.1539 101.402 75.0104 101.689 74.9148C101.737 75.2495 101.832 75.632 101.88 75.9666C101.354 76.0623 100.398 76.1579 100.254 76.1579C99.2504 76.1579 98.3898 75.2017 98.3898 74.2933V70.325H97.6248V69.4166H98.3898V68.0301C98.7723 67.8867 99.2026 67.6954 99.585 67.5998L99.585 69.4166ZM80.6042 66.9782V73.098C80.7955 74.5323 81.5604 75.0582 82.5166 75.0582C83.3295 75.0582 84.0944 74.6757 84.4769 73.5761V66.9782H85.72V73.7195C85.4331 75.7276 83.7597 76.1579 82.5166 76.1579C81.5126 76.1579 80.174 75.871 79.6002 74.5801C79.5046 74.2933 79.409 73.8151 79.409 73.7195V66.9782H80.6042ZM189.947 67.5998C189.947 68.0779 189.66 68.3647 189.23 68.3647C188.752 68.3647 188.513 67.9344 188.513 67.6476C188.513 67.1695 188.752 66.9304 189.23 66.9304C189.66 66.9304 189.947 67.1695 189.947 67.5998ZM96.334 67.5998C96.334 68.0779 95.9037 68.3647 95.569 68.3647C95.091 68.3647 94.8519 67.9344 94.8519 67.6476C94.8519 67.1695 95.2344 66.9304 95.569 66.9304C95.9993 66.9304 96.334 67.1695 96.334 67.5998ZM125.977 69.0819C125.977 69.7513 125.642 70.4206 124.686 70.8987L124.638 70.9943C126.024 71.2812 126.55 72.333 126.55 73.3849C126.55 73.4805 126.455 73.9108 126.407 74.1498C126.263 75.2017 124.59 76.0145 123.777 76.0145H120.813V66.8826H123.06C124.351 66.8826 125.977 67.2651 125.977 69.0819ZM174.17 66.8348L177.612 76.0145H176.226C176.034 75.3929 175.795 74.7236 175.556 74.102H172.305C172.018 74.7236 171.779 75.3929 171.588 76.0145H170.201C171.397 72.9545 172.64 69.8947 173.835 66.8348H174.17ZM182.345 66.8826C182.297 66.9782 182.011 67.7432 181.963 67.7432C181.819 67.7432 181.485 67.6475 181.341 67.6475C180.481 67.6475 180.098 68.4125 180.098 69.0819C180.098 69.1775 180.146 69.2731 180.146 69.4166H181.485V70.3728H180.146V76.0145H178.999V70.3728H178.042V69.4166H178.999C178.951 67.8388 179.764 66.6914 181.246 66.6914C181.341 66.6914 181.963 66.787 182.345 66.8826ZM155.428 66.8826L155.141 67.7432C154.95 67.6954 154.615 67.6475 154.472 67.6475C153.946 67.6475 153.229 68.1735 153.229 68.7472V69.4166H154.615V70.3728H153.229V76.0145H152.081V70.3728H151.125V69.4166H152.081C152.081 67.791 152.894 66.6914 154.328 66.6914C154.472 66.6914 155.093 66.787 155.428 66.8826ZM142.567 66.6914V72.3808L145.053 69.4166H146.439L144.384 71.9027L146.918 76.0145H145.627L143.571 72.7155C143.284 73.0502 142.902 73.4327 142.567 73.7674V76.0145H141.372V66.6914L142.567 66.6914ZM115.219 66.6914V76.0145H114.072C114.072 75.871 114.072 75.7276 114.024 75.5842C113.45 76.0145 112.876 76.1101 112.303 76.1101C110.199 76.1101 109.482 74.3411 109.482 72.859C109.482 71.3768 110.486 69.2732 112.542 69.2732C112.876 69.2732 113.689 69.4166 114.072 69.7035V66.6914L115.219 66.6914ZM121.196 44.1248C124.016 44.7463 125.259 46.324 125.259 48.5233C125.259 48.6189 125.212 49.5273 125.068 50.0054C124.925 50.4836 124.662 50.9059 124.208 51.4876C122.795 53.2964 120.096 54.7387 118.422 54.7387H113.641C114.406 51.2485 115.076 47.6627 115.841 44.2204C115.841 44.1248 115.889 44.077 115.984 44.0292L119.618 43.9336C119.713 43.9336 120.67 44.0292 121.196 44.1248ZM152.894 48.1408H144.24L150.551 38.4831L152.894 48.1408ZM126.072 35.5667C126.072 35.6623 125.881 36.5707 125.833 37.0488C125.738 38.0529 124.829 39.535 123.49 40.3478C123.012 40.6346 121.052 41.7821 120.765 41.7821H116.51C116.653 41.0171 116.797 40.2043 116.94 39.4393C117.036 38.9612 117.179 38.4353 117.227 37.9572C117.323 37.4791 117.466 36.9532 117.514 36.4751C117.61 35.997 117.753 35.4711 117.801 34.993C117.897 34.5148 117.936 34.2519 118.04 33.5108C118.144 32.6582 118.08 32.6263 118.566 32.6502L122.152 32.5546C123.682 32.5546 126.072 33.3674 126.072 35.5667ZM154.472 28.7776L161.643 58.2767H155.189L154.041 52.4916H141.563L137.738 58.2767H132.383L152.368 28.7776H154.472ZM125.929 28.7776C130.232 29.2557 132.24 31.2637 132.24 34.6105C132.24 38.1963 129.754 40.8737 125.403 42.308C125.451 42.3558 125.546 42.3558 125.594 42.3558C128.797 42.8339 131.092 44.6985 131.092 47.6149C131.092 52.2526 128.224 56.5555 122.008 57.942C121.721 57.9898 119.809 58.3723 119.14 58.3723H106.948L113.115 28.7775L125.929 28.7776ZM87.0586 28.7776C86.5805 31.3116 86.0546 33.7021 85.5765 36.0926C85.194 37.8616 84.8115 39.7262 84.4769 41.543C83.9988 44.2204 83.2338 46.8022 83.2338 49.4795C83.2338 52.396 84.19 55.0256 87.967 55.0256C91.6006 55.0256 95.1865 52.635 96.3339 47.7584C97.8161 41.4474 99.0591 35.0886 100.398 28.7775H105.848V28.921C104.318 35.8535 102.884 42.7861 101.306 49.6708C100.47 51.8462 100.099 52.1928 99.4416 53.0653C96.5729 57.0336 92.7481 58.3245 89.4492 58.707C89.0667 58.7548 88.3973 58.8505 88.2539 58.8505H85.3375C84.7638 58.8026 84.1422 58.707 83.6163 58.6114C83.0904 58.5158 82.5166 58.3723 81.9907 58.2289C78.3093 57.3205 76.875 53.7825 76.875 51.1529V50.0054C76.9228 49.6708 76.9228 49.2883 76.9706 48.9058C78.3571 42.2124 79.7436 35.4711 81.1301 28.7776L87.0586 28.7776ZM186.17 58.0854C185.405 58.181 183.923 58.3723 183.779 58.3723H171.874L179.907 20.6497C184.114 28.8732 188.321 37.1923 192.481 45.5112C193.198 47.328 193.867 49.2882 193.867 51.1528C193.867 55.3124 190.951 57.3204 186.17 58.0854ZM203.286 50.7226C200.848 45.9893 198.409 41.2083 196.019 36.4751C194.68 33.8455 193.341 31.1203 192.003 28.5385C191.572 27.6301 191.094 26.8174 190.712 25.9567C190.282 25.0006 189.325 22.0841 189.325 20.6976V19.6936C189.373 19.2155 189.421 18.6417 189.564 18.2114C190.999 13.6694 196.306 13.2391 199.461 13L211.366 13L203.286 50.7226Z" fill="url(#paint0_linear_107_479)"/>
</g>
<defs>
<linearGradient id="paint0_linear_107_479" x1="6801.43" y1="13" x2="6801.43" y2="6328.79" gradientUnits="userSpaceOnUse">
<stop stop-color="#ED1500"/>
<stop offset="1" stop-color="#D70900"/>
</linearGradient>
<clipPath id="clip0_107_479">
<rect width="135" height="63.1579" fill="white" transform="translate(76.875 13)"/>
</clipPath>
</defs>
</svg>
