<svg width="18" height="18" viewBox="0 0 18 18" fill="none" xmlns="http://www.w3.org/2000/svg">
<path d="M8.13406 12.6702C8.00878 12.8473 7.89016 12.9346 7.77676 12.9346C7.70116 12.9346 7.65814 12.8904 7.64446 12.8025C7.63906 12.7843 7.63906 12.7154 7.63906 12.5829V10.2861H7.07422V12.7528C7.07422 12.9733 7.09294 13.122 7.12408 13.2165C7.18042 13.3746 7.30606 13.4485 7.48822 13.4485C7.69594 13.4485 7.90942 13.3231 8.13388 13.0653V13.4057H8.69962V10.2863H8.13406V12.6702Z" fill="white"/>
<path d="M5.02148 9.80807H5.6864V13.4054H6.31496V9.80807H6.99212V9.21875H5.02148V9.80807Z" fill="white"/>
<path d="M8.87084 7.08038C9.05498 7.08038 9.14318 6.93458 9.14318 6.6428V5.31656C9.14318 5.02514 9.05498 4.87988 8.87084 4.87988C8.68652 4.87988 8.59814 5.02514 8.59814 5.31656V6.6428C8.59832 6.9344 8.68652 7.08038 8.87084 7.08038Z" fill="white"/>
<path d="M10.3381 10.2478C10.1304 10.2478 9.93669 10.3616 9.75435 10.5862V9.21875H9.18896V13.4054H9.75435V13.1026C9.94299 13.3364 10.1372 13.4482 10.3381 13.4482C10.5633 13.4482 10.7145 13.3298 10.7901 13.0977C10.8277 12.9654 10.8469 12.7577 10.8469 12.4692V11.227C10.8469 10.9318 10.8277 10.7255 10.7901 10.6001C10.7143 10.3662 10.5633 10.2478 10.3381 10.2478ZM10.2817 12.5135C10.2817 12.7952 10.1988 12.9341 10.0359 12.9341C9.94299 12.9341 9.84867 12.8898 9.75417 12.7953V10.8938C9.84867 10.8008 9.94281 10.7565 10.0359 10.7565C10.1989 10.7565 10.2817 10.9008 10.2817 11.1822V12.5135Z" fill="white"/>
<path d="M12.1382 10.248C11.8498 10.248 11.6245 10.3544 11.4614 10.5681C11.3412 10.7256 11.2866 10.9693 11.2866 11.3025V12.3954C11.2866 12.7266 11.3482 12.9731 11.4682 13.1288C11.6315 13.3417 11.8565 13.4483 12.1524 13.4483C12.4476 13.4483 12.6793 13.3365 12.8359 13.1104C12.9049 13.0089 12.95 12.893 12.9678 12.7715C12.9729 12.7148 12.9799 12.5891 12.9799 12.4073V12.3245H12.403C12.403 12.5513 12.396 12.6768 12.3907 12.7076C12.3585 12.8586 12.2772 12.9342 12.1382 12.9342C11.9442 12.9342 11.8498 12.7902 11.8498 12.5015V11.9485H12.9801V11.3023C12.9801 10.9689 12.9234 10.7254 12.8051 10.5679C12.6469 10.3542 12.4219 10.248 12.1382 10.248ZM12.4149 11.4782H11.8498V11.1896C11.8498 10.9013 11.9442 10.7569 12.1332 10.7569C12.3202 10.7569 12.4149 10.9013 12.4149 11.1896V11.4782Z" fill="white"/>
<path d="M14.22 2.51953H3.78002C3.08702 2.51953 2.52002 3.08653 2.52002 3.77953V14.2195C2.52002 14.9125 3.08702 15.4795 3.78002 15.4795H14.22C14.913 15.4795 15.48 14.9125 15.48 14.2195V3.77953C15.48 3.08653 14.913 2.51953 14.22 2.51953ZM10.1844 4.40413H10.7538V6.72469C10.7538 6.85897 10.7538 6.92863 10.7608 6.94699C10.7734 7.03555 10.818 7.08073 10.8947 7.08073C11.0088 7.08073 11.1289 6.99217 11.2554 6.81325V4.40413H11.8267V7.55593H11.2554V7.21213C11.0281 7.47295 10.8112 7.59967 10.6029 7.59967C10.419 7.59967 10.2921 7.52497 10.235 7.36513C10.2035 7.26991 10.1844 7.11889 10.1844 6.89641V4.40413ZM8.02676 5.43157C8.02676 5.09479 8.08418 4.84837 8.20568 4.68907C8.36372 4.47379 8.5862 4.36597 8.8706 4.36597C9.1568 4.36597 9.37892 4.47379 9.53714 4.68907C9.65666 4.84837 9.71444 5.09479 9.71444 5.43157V6.53587C9.71444 6.87067 9.65684 7.11907 9.53714 7.27729C9.37892 7.49203 9.15698 7.59985 8.8706 7.59985C8.58602 7.59985 8.36354 7.49203 8.20568 7.27729C8.08418 7.11907 8.02676 6.87067 8.02676 6.53587V5.43157ZM6.49928 3.32629L6.9491 4.98715L7.38092 3.32629H8.02136L7.2596 5.84305V7.55593H6.626V5.84305C6.56876 5.53921 6.44204 5.09461 6.239 4.50475C6.10544 4.11235 5.9663 3.71815 5.83292 3.32629H6.49928ZM13.5132 13.5928C13.399 14.0901 12.9919 14.457 12.5023 14.5115C11.3424 14.6411 10.1686 14.6418 9.00002 14.6411C7.83128 14.6418 6.6575 14.6411 5.49776 14.5115C5.00798 14.4568 4.60154 14.0899 4.48724 13.5928C4.32434 12.8843 4.32434 12.111 4.32434 11.382C4.32434 10.6523 4.32614 9.87955 4.48922 9.17089C4.60334 8.67373 5.00996 8.30707 5.49974 8.25235C6.65948 8.12239 7.83326 8.12203 9.002 8.12239C10.1706 8.12203 11.3443 8.12239 12.5043 8.25235C12.9937 8.30707 13.4007 8.67373 13.515 9.17089C13.6779 9.87973 13.677 10.6523 13.677 11.382C13.6771 12.111 13.6762 12.8843 13.5132 13.5928Z" fill="white"/>
</svg>
